<?xml version="1.0" encoding="UTF-8"?>
<svg width="824px" height="824px" viewBox="0 0 824 824" version="1.1" xmlns="http://www.w3.org/2000/svg" xmlns:xlink="http://www.w3.org/1999/xlink">
    <title>Icon Center Image Artwork</title>
    <defs>
        <linearGradient x1="50%" y1="9.27940082%" x2="50%" y2="109.279401%" id="linearGradient-1">
            <stop stop-color="#D4E5EB" offset="0%"></stop>
            <stop stop-color="#949290" offset="100%"></stop>
        </linearGradient>
        <rect id="path-2" x="0" y="0" width="824" height="824"></rect>
        <filter x="-0.8%" y="-0.6%" width="101.7%" height="101.7%" filterUnits="objectBoundingBox" id="filter-3">
            <feOffset dx="0" dy="2" in="SourceAlpha" result="shadowOffsetOuter1"></feOffset>
            <feGaussianBlur stdDeviation="2" in="shadowOffsetOuter1" result="shadowBlurOuter1"></feGaussianBlur>
            <feComposite in="shadowBlurOuter1" in2="SourceAlpha" operator="out" result="shadowBlurOuter1"></feComposite>
            <feColorMatrix values="0 0 0 0 0   0 0 0 0 0   0 0 0 0 0  0 0 0 0.5 0" type="matrix" in="shadowBlurOuter1"></feColorMatrix>
        </filter>
        <filter id="filter-4">
            <feColorMatrix in="SourceGraphic" type="matrix" values="0 0 0 0 1.000000 0 0 0 0 1.000000 0 0 0 0 1.000000 0 0 0 1.000000 0"></feColorMatrix>
        </filter>
        <filter x="-13.9%" y="-13.9%" width="127.8%" height="127.8%" filterUnits="objectBoundingBox" id="filter-5">
            <feOffset dx="0" dy="15" in="SourceAlpha" result="shadowOffsetOuter1"></feOffset>
            <feGaussianBlur stdDeviation="14" in="shadowOffsetOuter1" result="shadowBlurOuter1"></feGaussianBlur>
            <feColorMatrix values="0 0 0 0 0   0 0 0 0 0   0 0 0 0 0  0 0 0 0.5 0" type="matrix" in="shadowBlurOuter1" result="shadowMatrixOuter1"></feColorMatrix>
            <feMerge>
                <feMergeNode in="shadowMatrixOuter1"></feMergeNode>
                <feMergeNode in="SourceGraphic"></feMergeNode>
            </feMerge>
        </filter>
    </defs>
    <g id="Symbols" stroke="none" stroke-width="1" fill="none" fill-rule="evenodd">
        <g id="Group">
            <rect id="Guide---Hide" stroke-opacity="0.09" stroke="#EA33EC" stroke-width="50" fill-opacity="0.1" fill="#EA33EC" x="25" y="25" width="462" height="462"></rect>
            <g id="background">
                <use fill="black" fill-opacity="1" filter="url(#filter-3)" xlink:href="#path-2"></use>
                <rect stroke="#979797" stroke-width="1" fill="url(#linearGradient-1)" fill-rule="evenodd" x="0.5" y="0.5" width="823" height="823"></rect>
            </g>
            <g filter="url(#filter-4)" id="master-icon">
                <g filter="url(#filter-5)" transform="translate(116.000000, 115.000000)">
                    <g id="window" fill="#000000" fill-rule="nonzero">
                        <path d="M50.711021,15.1821887 C29.8889992,15.1821887 12.9509401,35.0457749 12.9509401,59.4641584 L12.9509401,533.540062 C12.9509401,557.952818 29.8889992,577.817811 50.711021,577.817811 L542.311769,577.817811 C563.120597,577.817811 580.058656,557.959852 580.058656,533.545688 L580.058656,59.4697851 C580.058656,35.0514016 563.120597,15.1920354 542.306971,15.1920354 L50.706223,15.1920354 L50.711021,15.1821887 Z M542.311769,593 L50.711021,593 C22.7520081,593 0,566.328131 0,533.540062 L0,59.4641584 C0,26.6760887 22.7532076,0 50.706223,0 L542.306971,0 C570.265984,0 593,26.6774954 593,59.4641584 L593,533.540062 C593,566.328131 570.261186,593 542.302173,593 L542.311769,593 Z" id="Shape"></path>
                        <path d="M586.5293,108.807339 L6.47537759,108.807339 C2.90026961,108.807339 0,105.401325 0,101.190826 C0,96.9856873 2.90038956,93.5743119 6.47537759,93.5743119 L586.5293,93.5743119 C590.118443,93.5743119 593,96.9858284 593,101.190826 C593,105.395964 590.113765,108.807339 586.5293,108.807339 Z" id="Path"></path>
                    </g>
                    <g id="buttons" transform="translate(359.000000, 30.000000)" fill="#000000" fill-rule="nonzero">
                        <path d="M169.553703,15.1130445 C164.952746,15.1130445 161.19779,18.8766015 161.19779,23.4990197 C161.19779,28.1214379 164.952746,31.8849949 169.553703,31.8849949 C174.171007,31.8849949 177.925963,28.1214379 177.925963,23.4990197 C177.925963,18.8766015 174.171007,15.1130445 169.553703,15.1130445 Z M169.553703,47 C156.624218,47 146.112994,36.4588195 146.112994,23.5 C146.112994,10.5409004 156.624637,0 169.548114,0 C182.477599,0 193,10.5411805 193,23.5 C193,36.4590996 182.477459,47 169.548114,47 L169.553703,47 Z" id="Shape"></path>
                        <path d="M96.4944119,15.1130445 C91.8940034,15.1130445 88.1394945,18.8766015 88.1394945,23.4990197 C88.1394945,28.1214379 91.8940034,31.8849949 96.4944119,31.8849949 C101.111166,31.8849949 104.865674,28.1214379 104.865674,23.4990197 C104.865674,18.8766015 101.111166,15.1130445 96.4944119,15.1130445 Z M96.4944119,47 C83.5664677,47 73.0564972,36.4588195 73.0564972,23.5 C73.0564972,10.5409004 83.5668869,0 96.4944119,0 C109.422356,0 119.943503,10.5411805 119.943503,23.5 C119.943503,36.4590996 109.422216,47 96.4944119,47 Z" id="Shape"></path>
                        <path d="M23.4490909,15.1130445 C18.8323372,15.1130445 15.0778283,18.8766015 15.0778283,23.4990197 C15.0778283,28.1214379 18.8323372,31.8849949 23.4490909,31.8849949 C28.0549478,31.8849949 31.8040083,28.1214379 31.8040083,23.4990197 C31.8040083,18.8766015 28.0494994,15.1130445 23.4490909,15.1130445 Z M23.4490909,47 C10.5211468,47 0,36.4588195 0,23.5 C0,10.5409004 10.5212865,0 23.4490909,0 C36.3768954,0 46.8870056,10.5411805 46.8870056,23.5 C46.8870056,36.4590996 36.376616,47 23.454679,47 L23.4490909,47 Z" id="Shape"></path>
                    </g>
                    <g id="globe" transform="translate(104.000000, 150.000000)" fill="#000000" fill-rule="nonzero">
                        <path d="M191.492964,15.1826665 C94.2760572,15.1826665 15.1826665,94.2774643 15.1826665,191.492964 C15.1826665,288.708465 94.2718358,367.803262 191.492964,367.803262 C288.714093,367.803262 367.817333,288.708465 367.817333,191.492964 C367.817333,94.2704287 288.711279,15.1826665 191.492964,15.1826665 Z M191.492964,383 C85.9051876,383 0,297.094812 0,191.507036 C0,85.9192586 85.9051876,0 191.492964,0 C297.097627,0 383,85.9051876 383,191.507036 C383,297.100441 297.094812,383 191.492964,383 L191.492964,383 Z" id="Shape"></path>
                        <path d="M191.500705,15.1799638 C129.11538,15.1799638 78.3326255,94.2753428 78.3326255,191.491557 C78.3326255,288.707772 129.109738,367.803151 191.500705,367.803151 C253.902956,367.803151 304.668785,288.707772 304.668785,191.491557 C304.668785,94.2683072 253.902956,15.1799638 191.500705,15.1799638 Z M191.500705,383 C156.597082,383 124.006639,362.6517 99.742231,325.703657 C76.1111269,289.744816 63.1079545,242.084401 63.1079545,191.5 C63.1079545,140.915599 76.1108448,93.2551839 99.742231,57.296343 C124.006639,20.3482997 156.597082,0 191.500705,0 C226.421254,0 259.010287,20.3482997 283.274695,57.296343 C306.888873,93.2551839 319.892045,140.915599 319.892045,191.5 C319.892045,242.084401 306.889155,289.744816 283.274695,325.703657 C259.010287,362.6517 226.419844,383 191.500705,383 Z" id="Shape"></path>
                        <path d="M191.491573,15.1826665 C171.926896,15.1826665 144.638876,82.2565634 144.638876,191.492964 C144.638876,300.729366 171.9283,367.803262 191.491573,367.803262 C211.054846,367.803262 238.361124,300.729366 238.361124,191.492964 C238.361124,82.2565634 211.05625,15.1826665 191.491573,15.1826665 Z M191.491573,383 C151.204911,383 129.480114,284.332367 129.480114,191.507036 C129.480114,98.6704471 151.211934,0 191.491573,0 C231.778235,0 253.519886,98.6620045 253.519886,191.507036 C253.519886,284.343624 231.778235,383 191.491573,383 L191.491573,383 Z" id="Shape"></path>
                        <path d="M333.131926,82.6931818 L55.0041295,82.6931818 C50.8971146,82.6931818 47.5653409,79.2804438 47.5653409,75.0794534 C47.5653409,70.8728175 50.8972524,67.4602273 55.0041295,67.4602273 L333.131926,67.4602273 C337.238941,67.4602273 340.565341,70.8729586 340.565341,75.0794534 C340.565341,79.2860894 337.233429,82.6986796 333.131926,82.6931818 Z" id="Path"></path>
                        <path d="M371.188148,161.034091 L18.1073062,161.034091 C13.9888128,161.034091 10.6477273,157.621353 10.6477273,153.420363 C10.6477273,149.213727 13.988951,145.801136 18.1073062,145.801136 L371.188148,145.801136 C375.322809,145.801136 378.647727,149.213868 378.647727,153.420363 C378.647727,157.621494 375.322809,161.039589 371.188148,161.034091 Z" id="Path"></path>
                        <path d="M371.127337,238.286932 L15.168118,238.286932 C11.0160499,238.286932 7.64772727,234.875432 7.64772727,230.670455 C7.64772727,226.465477 11.0161892,223.053977 15.168118,223.053977 L371.127337,223.053977 C375.295704,223.053977 378.647727,226.465477 378.647727,230.670455 C378.647727,234.875432 375.295704,238.286932 371.127337,238.286932 Z" id="Path"></path>
                        <path d="M333.081186,316.627841 L53.0549063,316.627841 C48.9198571,316.627841 45.5653409,313.220607 45.5653409,309.014113 C45.5653409,304.807477 48.9199958,301.394886 53.0549063,301.394886 L333.081186,301.394886 C337.216235,301.394886 340.565341,304.807618 340.565341,309.014113 C340.565341,313.220748 337.210686,316.633339 333.081186,316.627841 Z" id="Path"></path>
                    </g>
                </g>
            </g>
        </g>
    </g>
</svg>
